<?xml version="1.0" encoding="utf-8"?>
<!-- Generator: Adobe Illustrator 27.1.1, SVG Export Plug-In . SVG Version: 6.00 Build 0)  -->
<svg version="1.1" id="Layer_1" xmlns="http://www.w3.org/2000/svg" xmlns:xlink="http://www.w3.org/1999/xlink" x="0px" y="0px"
	 viewBox="0 0 199 199" style="enable-background:new 0 0 199 199;" xml:space="preserve">
<style type="text/css">
	.st0{fill:none;stroke:#DA4899;stroke-width:0.2;}
	.st1{fill:#BBBDBF;}
	.st2{fill:#FFFFFF;}
	.st3{fill:#DA322B;}
	.st4{fill:#E6E7E8;}
	.st5{fill:#E98F38;}
	.st6{fill:#ECE84E;}
	.st7{fill:#A6A8AB;}
</style>
<g>
	<g>
		<path class="st0" d="M161.4,84.3"/>
		<polygon class="st1" points="59.1,72 2.6,45 2.6,100.1 59.1,127.1 		"/>
		<path class="st2" d="M1.2,42.8C0.5,43.3,0,44.1,0,45v55.1c0,1,0.6,1.9,1.5,2.4L58,129.4c0.8,0.4,1.8,0.3,2.5-0.1
			c0.8-0.5,1.2-1.3,1.2-2.2V72c0-1-0.6-1.9-1.5-2.4L3.8,42.7C2.9,42.3,2,42.3,1.2,42.8z M5.2,49.2c6.4,3,48.6,23.2,51.2,24.4
			c0,2.9,0,42.4,0,49.3c-6.4-3-48.6-23.2-51.2-24.4C5.2,95.6,5.2,56.1,5.2,49.2z"/>
		<polygon class="st3" points="115.6,98.9 59.1,72 14.5,113.1 71,140 		"/>
		<path class="st2" d="M57.3,70l-44.6,41.1c-0.6,0.6-0.9,1.5-0.8,2.3c0.1,0.9,0.7,1.6,1.5,2l56.5,26.9c1,0.5,2.1,0.3,2.9-0.4
			l44.6-41.1c0.6-0.6,0.9-1.5,0.8-2.3c-0.1-0.9-0.7-1.6-1.5-2L60.2,69.6C59.3,69.1,58.1,69.3,57.3,70z M59.6,75.1
			c2.8,1.3,45.4,21.6,51.4,24.5c-4.8,4.5-38.1,35.1-40.4,37.3c-2.8-1.4-45.4-21.7-51.4-24.5C24,107.9,57.3,77.2,59.6,75.1z"/>
		<polygon class="st1" points="71,140 14.5,113.1 14.5,168.2 71,195.1 		"/>
		<path class="st2" d="M13.1,110.9c-0.8,0.5-1.2,1.3-1.2,2.2v55.1c0,1,0.6,1.9,1.5,2.4l56.5,26.9c0.8,0.4,1.8,0.3,2.5-0.1
			c0.8-0.5,1.2-1.3,1.2-2.2V140c0-1-0.6-1.9-1.5-2.4l-56.5-26.9C14.8,110.3,13.9,110.4,13.1,110.9z M17.1,117.2
			c6.4,3,48.6,23.2,51.2,24.4c0,2.9,0,42.4,0,49.3c-6.4-3-48.6-23.2-51.2-24.4C17.1,163.6,17.1,124.1,17.1,117.2z"/>
		<polygon class="st4" points="115.6,98.9 71,140 71,195.1 115.6,154 		"/>
		<path class="st2" d="M113.8,97l-44.6,41.1c-0.5,0.5-0.8,1.2-0.8,1.9v55.1c0,1,0.6,2,1.6,2.4c1,0.4,2.1,0.2,2.8-0.5l44.6-41.1
			c0.5-0.5,0.8-1.2,0.8-1.9V98.9c0-1-0.6-2-1.6-2.4C115.7,96.1,114.6,96.3,113.8,97z M113,104.9c0,9.3,0,46,0,48
			c-1.5,1.3-32.4,29.8-39.3,36.3c0-9.3,0-46,0-47.9C75.1,139.8,106,111.3,113,104.9z"/>
		<polygon class="st4" points="160.2,57.8 115.6,98.9 115.6,154 160.2,112.9 		"/>
		<path class="st2" d="M158.4,55.9L113.8,97c-0.5,0.5-0.8,1.2-0.8,1.9V154c0,1,0.6,2,1.6,2.4c1,0.4,2.1,0.2,2.8-0.5l44.6-41.1
			c0.5-0.5,0.8-1.2,0.8-1.9V57.8c0-1-0.6-2-1.6-2.4C160.3,55,159.2,55.2,158.4,55.9z M157.6,63.8c0,9.3,0,46,0,47.9
			c-1.5,1.3-32.3,29.8-39.3,36.3c0-9.3,0-46,0-47.9C119.7,98.7,150.6,70.2,157.6,63.8z"/>
		<polygon class="st5" points="160.2,57.8 103.7,30.9 59.1,72 115.6,98.9 		"/>
		<path class="st2" d="M101.9,29L57.3,70c-0.6,0.6-0.9,1.5-0.8,2.3c0.1,0.9,0.7,1.6,1.5,2l56.5,26.9c1,0.5,2.1,0.3,2.9-0.4L162,59.7
			c0.6-0.6,0.9-1.5,0.8-2.3c-0.1-0.9-0.7-1.6-1.5-2l-56.5-26.9C103.9,28.1,102.7,28.2,101.9,29z M104.2,34
			c2.8,1.3,45.4,21.6,51.4,24.5c-4.8,4.5-38.1,35.2-40.4,37.3c-2.8-1.4-45.4-21.7-51.4-24.5C68.6,66.8,101.9,36.1,104.2,34z"/>
		<polygon class="st5" points="103.7,30.9 47.2,4 2.6,45 59.1,72 		"/>
		<path class="st2" d="M45.4,2L0.8,43.1c-0.6,0.6-0.9,1.5-0.8,2.3c0.1,0.9,0.7,1.6,1.5,2L58,74.3c1,0.5,2.1,0.3,2.9-0.4l44.6-41.1
			c0.6-0.6,0.9-1.5,0.8-2.3c-0.1-0.9-0.7-1.6-1.5-2L48.3,1.6C47.4,1.1,46.2,1.3,45.4,2z M47.7,7.1c2.8,1.3,45.4,21.6,51.4,24.5
			C94.2,36,60.9,66.7,58.6,68.8c-2.8-1.4-45.4-21.7-51.4-24.5C12.1,39.9,45.4,9.2,47.7,7.1z"/>
		<path class="st2" d="M45.2,51.5L38,48.1L64.1,24l7.4,3.5L45.2,51.5z"/>
		<path class="st2" d="M129.2,65.7L109,55.9L97.8,66.5l20.3,9.5l-5.8,5.3L91.8,71.1c-5.2-2.8-5.9-6-2-9.6l10.1-9.4
			c1.8-1.7,3.8-2.6,6.1-2.8c2.3-0.3,4.7,0.2,7.2,1.4l21.1,10.2L129.2,65.7z"/>
		<path class="st6" d="M72.7,118.6c-4.3,4-8.5,4.8-12.6,2.6L39.6,111l25.2-22.9l19.6,10c2.1,1,3.1,2.4,3.1,4.1c0,1.7-1.9,4.4-4,6.4
			L72.7,118.6z M63.7,115l13.1-11.9l-10.6-5.6l-13.1,11.9L63.7,115z"/>
	</g>
</g>
</svg>
